<svg width="23" height="23" viewBox="0 0 23 23" fill="none" xmlns="http://www.w3.org/2000/svg">
  <path
    d="M9.89453 1.65234C5.89844 2.46875 2.67578 5.69141 1.85938 9.6875C0.699219 15.7461 4.82422 21.1602 10.4102 21.9336C11.2266 22.0625 12 21.418 12 20.6016V20.5586C12 19.9141 11.4844 19.3125 10.8398 19.2266C7.1875 18.668 4.4375 15.5312 4.4375 11.75C4.4375 7.32422 8.21875 3.75781 12.7305 4.1875C16.6406 4.57422 19.5625 8.14062 19.5625 12.0938V12.7812C19.5625 13.7266 18.7891 14.5 17.8438 14.5C16.8555 14.5 16.125 13.7266 16.125 12.7812V7.625C16.125 7.23828 15.7812 6.9375 15.4375 6.9375H14.0625C13.7188 6.9375 13.4609 7.15234 13.375 7.41016C12.3438 6.89453 11.0547 6.72266 9.67969 7.19531C8.04688 7.79688 6.75781 9.30078 6.54297 11.0625C6.11328 14.0273 8.39062 16.5625 11.3125 16.5625C12.4297 16.5625 13.4609 16.1328 14.2773 15.4883C15.3086 16.8203 17.0703 17.5938 19.0039 17.1211C20.9805 16.6484 22.3125 14.7148 22.2695 12.6953V11.793C22.2695 5.39062 16.5117 0.363281 9.89453 1.65234ZM11.2695 13.8555C10.1094 13.8555 9.20703 12.9102 9.20703 11.793C9.20703 10.6328 10.1094 9.73047 11.2695 9.73047C12.3867 9.73047 13.332 10.6328 13.332 11.793C13.332 12.9102 12.4297 13.8555 11.2695 13.8555Z"
    fill="#086AD8"></path>
</svg>