<svg width="28" height="22" viewBox="0 0 28 22" fill="none" xmlns="http://www.w3.org/2000/svg">
  <path
    d="M3.09167 21.625C2.38334 21.625 1.78126 21.3771 1.28542 20.8812C0.789589 20.3854 0.541672 19.7833 0.541672 19.075V2.925C0.541672 2.21667 0.789589 1.61458 1.28542 1.11875C1.78126 0.622917 2.38334 0.375 3.09167 0.375H24.9083C25.6167 0.375 26.2188 0.622917 26.7146 1.11875C27.2104 1.61458 27.4583 2.21667 27.4583 2.925V19.075C27.4583 19.7833 27.2104 20.3854 26.7146 20.8812C26.2188 21.3771 25.6167 21.625 24.9083 21.625H3.09167ZM3.09167 19.5H24.9083C25.0028 19.5 25.0972 19.4528 25.1917 19.3583C25.2861 19.2639 25.3333 19.1694 25.3333 19.075V5.33333H2.66667V19.075C2.66667 19.1694 2.71389 19.2639 2.80834 19.3583C2.90278 19.4528 2.99723 19.5 3.09167 19.5ZM14.3542 17.7292V15.6042H22.1458V17.7292H14.3542ZM7.625 17.5875L6.1375 16.1L9.78542 12.4167L6.10209 8.73333L7.625 7.24583L12.7958 12.4167L7.625 17.5875Z"
    fill="#086AD8" />
</svg>