<svg width="20" height="30" viewBox="0 0 20 30" fill="none" xmlns="http://www.w3.org/2000/svg">
  <path
    d="M4.54584 14.0792V12.3792H15.4542V14.0792H4.54584ZM5.9625 18.3292V16.6292H14.0375V18.3292H5.9625ZM3.34167 29.875C2.63334 29.875 2.03126 29.6271 1.53542 29.1313C1.03959 28.6354 0.791672 28.0333 0.791672 27.325V2.675C0.791672 1.96667 1.03959 1.36458 1.53542 0.86875C2.03126 0.372917 2.63334 0.125 3.34167 0.125H16.6583C17.3667 0.125 17.9688 0.372917 18.4646 0.86875C18.9604 1.36458 19.2083 1.96667 19.2083 2.675V27.325C19.2083 28.0333 18.9604 28.6354 18.4646 29.1313C17.9688 29.6271 17.3667 29.875 16.6583 29.875H3.34167ZM2.91667 23.8542H17.0833V6.14583H2.91667V23.8542ZM2.91667 25.9792V27.325C2.91667 27.4194 2.96389 27.5139 3.05834 27.6083C3.15278 27.7028 3.24723 27.75 3.34167 27.75H16.6583C16.7528 27.75 16.8472 27.7028 16.9417 27.6083C17.0361 27.5139 17.0833 27.4194 17.0833 27.325V25.9792H2.91667ZM2.91667 4.02083H17.0833V2.675C17.0833 2.58056 17.0361 2.48611 16.9417 2.39167C16.8472 2.29722 16.7528 2.25 16.6583 2.25H3.34167C3.24723 2.25 3.15278 2.29722 3.05834 2.39167C2.96389 2.48611 2.91667 2.58056 2.91667 2.675V4.02083Z"
    fill="#086AD8" />
</svg>