<?xml version="1.0" encoding="UTF-8"?>
<svg xmlns="http://www.w3.org/2000/svg" width="28" height="30" viewBox="0 0 28 30" fill="none">
  <path
    d="M3.50831 27.0415C2.79998 27.0415 2.1979 26.7936 1.70206 26.2977C1.20623 25.8019 0.958313 25.1998 0.958313 24.4915V5.50814C0.958313 4.7998 1.20623 4.19772 1.70206 3.70189C2.1979 3.20605 2.79998 2.95814 3.50831 2.95814H9.77706C9.96595 2.27342 10.3612 1.70061 10.9628 1.23972C11.5654 0.779777 12.2444 0.549805 13 0.549805C13.7791 0.549805 14.47 0.779777 15.0726 1.23972C15.6742 1.70061 16.0694 2.27342 16.2583 2.95814H22.4916C23.2 2.95814 23.8021 3.20605 24.2979 3.70189C24.7937 4.19772 25.0416 4.7998 25.0416 5.50814V12.6623H22.9166V5.50814C22.9166 5.39008 22.8756 5.28997 22.7934 5.2078C22.7103 5.12469 22.6097 5.08314 22.4916 5.08314H19.375V8.80189H6.62498V5.08314H3.50831C3.39026 5.08314 3.29015 5.12469 3.20798 5.2078C3.12487 5.28997 3.08331 5.39008 3.08331 5.50814V24.4915C3.08331 24.6095 3.12487 24.7101 3.20798 24.7932C3.29015 24.8754 3.39026 24.9165 3.50831 24.9165H10.6625V27.0415H3.50831ZM25.9625 29.4498L22.2437 25.7665C21.7479 26.0734 21.2459 26.3095 20.7378 26.4748C20.2306 26.6401 19.6819 26.7227 19.0916 26.7227C17.5333 26.7227 16.2111 26.1735 15.125 25.0751C14.0389 23.9777 13.4958 22.6498 13.4958 21.0915C13.4958 19.5331 14.0389 18.2109 15.125 17.1248C16.2111 16.0387 17.5333 15.4956 19.0916 15.4956C20.65 15.4956 21.9783 16.0387 23.0767 17.1248C24.1742 18.2109 24.7229 19.5331 24.7229 21.0915C24.7229 21.7054 24.6285 22.2838 24.4396 22.8269C24.2507 23.3699 24.0264 23.8422 23.7666 24.2436L27.45 27.9623L25.9625 29.4498ZM19.0916 24.5977C20.0833 24.5977 20.9154 24.261 21.5878 23.5876C22.2612 22.9152 22.5979 22.0831 22.5979 21.0915C22.5979 20.1234 22.2612 19.3027 21.5878 18.6293C20.9154 17.9569 20.0833 17.6206 19.0916 17.6206C18.1236 17.6206 17.3029 17.9569 16.6295 18.6293C15.957 19.3027 15.6208 20.1234 15.6208 21.0915C15.6208 22.0831 15.957 22.9152 16.6295 23.5876C17.3029 24.261 18.1236 24.5977 19.0916 24.5977ZM13 5.26022C13.3541 5.26022 13.655 5.13603 13.9024 4.88764C14.1508 4.64019 14.275 4.32758 14.275 3.9498C14.275 3.59564 14.1508 3.29436 13.9024 3.04597C13.655 2.79853 13.3541 2.6748 13 2.6748C12.6458 2.6748 12.345 2.79853 12.0976 3.04597C11.8492 3.29436 11.725 3.60744 11.725 3.98522C11.725 4.33939 11.8492 4.64019 12.0976 4.88764C12.345 5.13603 12.6458 5.26022 13 5.26022Z"
    fill="#086AD8"></path>
</svg>