<svg width="17" height="23" viewBox="0 0 17 23" fill="none" xmlns="http://www.w3.org/2000/svg">
  <path
    d="M7.21875 22.2344C4.98438 19.4414 0 12.7812 0 9C0 4.44531 3.65234 0.75 8.25 0.75C12.8047 0.75 16.5 4.44531 16.5 9C16.5 12.7812 11.4727 19.4414 9.23828 22.2344C8.72266 22.8789 7.73438 22.8789 7.21875 22.2344ZM8.25 11.75C9.75391 11.75 11 10.5469 11 9C11 7.49609 9.75391 6.25 8.25 6.25C6.70312 6.25 5.5 7.49609 5.5 9C5.5 10.5469 6.70312 11.75 8.25 11.75Z"
    fill="#086AD8"></path>
</svg>