<svg width="14" height="16" viewBox="0 0 14 16" fill="none" xmlns="http://www.w3.org/2000/svg">
  <path
    d="M2.25 15.9166C1.83333 15.9166 1.47917 15.7708 1.1875 15.4791C0.895833 15.1874 0.75 14.8333 0.75 14.4166V1.58325C0.75 1.16659 0.895833 0.812419 1.1875 0.520752C1.47917 0.229085 1.83333 0.083252 2.25 0.083252H8.875L13.25 4.45825V14.4166C13.25 14.8333 13.1042 15.1874 12.8125 15.4791C12.5208 15.7708 12.1667 15.9166 11.75 15.9166H2.25ZM2.25 14.6666H11.75C11.8056 14.6666 11.8611 14.6388 11.9167 14.5833C11.9722 14.5277 12 14.4721 12 14.4166V5.08325H8.25V1.33325H2.25C2.19444 1.33325 2.13889 1.36103 2.08333 1.41659C2.02778 1.47214 2 1.5277 2 1.58325V14.4166C2 14.4721 2.02778 14.5277 2.08333 14.5833C2.13889 14.6388 2.19444 14.6666 2.25 14.6666ZM2 14.4166V1.33325C2 1.33325 2 1.36103 2 1.41659C2 1.47214 2 1.5277 2 1.58325V14.4166Z"
    fill="white" fill-opacity="0.25" />
</svg>