<svg xmlns="http://www.w3.org/2000/svg" width="28" height="27" viewBox="0 0 28 27" fill="none">
  <path
    d="M4.68543 11.0522L7.80209 12.3626C8.17987 11.5834 8.5874 10.8397 9.02467 10.1314C9.46101 9.42302 9.9389 8.71469 10.4583 8.00635L8.40417 7.61677C8.30973 7.59316 8.23323 7.59316 8.17467 7.61677C8.11518 7.64038 8.05001 7.6758 7.97917 7.72302L4.68543 11.0522ZM9.50209 13.7084L13.5042 17.7105C14.5667 17.2619 15.6646 16.648 16.7979 15.8689C17.9313 15.0897 19.0056 14.1925 20.0208 13.1772C21.6028 11.5952 22.8306 9.86549 23.7042 7.98794C24.5778 6.11132 25.0146 4.18135 25.0146 2.19802C23.0313 2.19802 21.1013 2.62869 19.2247 3.49002C17.3471 4.3523 15.6056 5.58621 14 7.19177C12.9847 8.20705 12.0875 9.28135 11.3083 10.4147C10.5292 11.548 9.92709 12.6459 9.50209 13.7084ZM16.3021 10.8751C15.8299 10.3793 15.5938 9.78899 15.5938 9.10427C15.5938 8.41955 15.8299 7.84107 16.3021 7.36885C16.7979 6.89663 17.3939 6.66052 18.0899 6.66052C18.7869 6.66052 19.3715 6.89663 19.8438 7.36885C20.316 7.84107 20.5521 8.41955 20.5521 9.10427C20.5521 9.78899 20.316 10.3793 19.8438 10.8751C19.3715 11.3473 18.7869 11.5834 18.0899 11.5834C17.3939 11.5834 16.7979 11.3473 16.3021 10.8751ZM16.1604 22.5272L19.4542 19.2334C19.525 19.1626 19.5722 19.0974 19.5958 19.0379C19.6195 18.9794 19.6195 18.9029 19.5958 18.8084L19.1708 16.7543C18.4861 17.2737 17.7839 17.7459 17.0643 18.1709C16.3436 18.5959 15.6056 19.0091 14.85 19.4105L16.1604 22.5272ZM26.9271 0.250102C27.234 2.98899 26.9153 5.58007 25.9708 8.02335C25.0264 10.4676 23.4681 12.7758 21.2958 14.948C21.2486 14.9952 21.2071 15.0363 21.1712 15.0713C21.1362 15.1072 21.0951 15.1487 21.0479 15.1959L21.6854 18.3834C21.7563 18.8084 21.7326 19.2278 21.6146 19.6414C21.4965 20.0542 21.284 20.4022 20.9771 20.6855L15.4167 26.2459L12.7604 19.9772L7.20001 14.4168L0.966675 11.7605L6.49167 6.2001C6.77501 5.91677 7.12351 5.70994 7.53718 5.5796C7.9499 5.45021 8.36876 5.42094 8.79376 5.49177L12.0521 6.16469C12.0993 6.11746 12.1347 6.07638 12.1583 6.04144C12.182 6.00555 12.2174 5.96399 12.2646 5.91677C14.4368 3.74455 16.745 2.18007 19.1893 1.22335C21.6325 0.267575 24.2118 -0.0568421 26.9271 0.250102ZM3.41042 18.773C4.09515 18.0883 4.93334 17.7398 5.92501 17.7275C6.91668 17.7162 7.75487 18.0647 8.43959 18.773C9.14792 19.4577 9.49595 20.2959 9.48368 21.2876C9.47234 22.2793 9.12431 23.1175 8.43959 23.8022C7.89654 24.3452 7.01726 24.8057 5.80176 25.1834C4.58531 25.5612 3.00904 25.8682 1.07292 26.1043C1.30904 24.1918 1.62212 22.6278 2.01217 21.4123C2.40129 20.1958 2.86737 19.3161 3.41042 18.773ZM4.93334 20.2605C4.67362 20.5202 4.4257 20.9627 4.18959 21.5879C3.95348 22.2141 3.7882 22.8459 3.69376 23.4834C4.35487 23.4126 4.99237 23.2591 5.60626 23.023C6.22015 22.7869 6.65695 22.539 6.91667 22.2793C7.20001 21.9959 7.34734 21.6536 7.35867 21.2522C7.37095 20.8508 7.23542 20.5084 6.95209 20.2251C6.66876 19.9418 6.33206 19.8058 5.94201 19.8171C5.5529 19.8294 5.21667 19.9772 4.93334 20.2605Z"
    fill="#086AD8" />
</svg>