<svg xmlns="http://www.w3.org/2000/svg" width="27" height="22" viewBox="0 0 27 22" fill="none">
  <path
    d="M5.38333 10.5188H7.50833V8.39375H5.38333V10.5188ZM5.38333 15.8667H16.575V13.7417H5.38333V15.8667ZM19.4083 15.8667H21.5333V13.7417H19.4083V15.8667ZM10.3417 10.5188H21.5333V8.39375H10.3417V10.5188ZM2.55 21.25C1.84167 21.25 1.23958 21.0021 0.74375 20.5063C0.247917 20.0104 0 19.4083 0 18.7V2.55C0 1.84167 0.247917 1.23958 0.74375 0.74375C1.23958 0.247917 1.84167 0 2.55 0H24.3667C25.075 0 25.6771 0.247917 26.1729 0.74375C26.6687 1.23958 26.9167 1.84167 26.9167 2.55V18.7C26.9167 19.4083 26.6687 20.0104 26.1729 20.5063C25.6771 21.0021 25.075 21.25 24.3667 21.25H2.55ZM2.55 19.125H24.3667C24.4611 19.125 24.5556 19.0778 24.65 18.9833C24.7444 18.8889 24.7917 18.7944 24.7917 18.7V2.55C24.7917 2.45556 24.7444 2.36111 24.65 2.26667C24.5556 2.17222 24.4611 2.125 24.3667 2.125H2.55C2.45556 2.125 2.36111 2.17222 2.26667 2.26667C2.17222 2.36111 2.125 2.45556 2.125 2.55V18.7C2.125 18.7944 2.17222 18.8889 2.26667 18.9833C2.36111 19.0778 2.45556 19.125 2.55 19.125Z"
    fill="#086AD8" />
</svg>